# xmcd
#
# Track frame offsets:
#	150
#	9114
#	18710
#	33518
#	44077
#	56839
#	67630
#	79280
#	88512
#	99770
#	112155
#	122805
#	133730
#	143792
#	155910
#	171113
#	187619
#
# Disc length: 2617 seconds
#
# Revision: 0
# Processed by: cddbd v1.4PL0 Copyright (c) Steve Scherf et al.
# Submitted via: EasyCDDAExtractor 4.6.9.1
#
DISCID=e10a3711
DTITLE=Costa and Campbell with Amazing Jim Lloyd - Old-Time Music of Macon, Lund
DTITLE=y and Haley
DYEAR=1900
DGENRE=country
TTITLE0=Johnny Gray
TTITLE1=Western Cowboy
TTITLE2=She's Got the Money Too
TTITLE3=Piney Woods Gal (of North Carolina)
TTITLE4=Never Make Love No more - Abide By Me
TTITLE5=Dr. Humphrey's Jig
TTITLE6=Rock About My Sarah Jane
TTITLE7=Raccoon on a Rail
TTITLE8=Bake that Chicken Pie
TTITLE9=Going Back to Dixie
TTITLE10=Cherry River Rag
TTITLE11=Dixie Bee Line
TTITLE12=Ox in the Mud
TTITLE13=From Earth to Heaven
TTITLE14=Stacker Lee
TTITLE15=Sweet Bunch of Daisies - Rise When the Rooster Crows
TTITLE16=The Poor Little Thing Cried Mammy
EXTD=
EXTT0=
EXTT1=
EXTT2=
EXTT3=
EXTT4=
EXTT5=
EXTT6=
EXTT7=
EXTT8=
EXTT9=
EXTT10=
EXTT11=
EXTT12=
EXTT13=
EXTT14=
EXTT15=
EXTT16=
PLAYORDER=
